<?xml version="1.0"?>
<svg xmlns:rdf="http://www.w3.org/1999/02/22-rdf-syntax-ns#" xmlns="http://www.w3.org/2000/svg" xmlns:cc="http://web.resource.org/cc/" xmlns:xlink="http://www.w3.org/1999/xlink" xmlns:dc="http://purl.org/dc/elements/1.1/" xmlns:svg="http://www.w3.org/2000/svg" id="Layer_1" xml:space="preserve" overflow="visible" viewBox="0 0 441.083 160.337" version="1.1" enable-background="new 0 0 441.083 160.337">
<g clip-rule="evenodd" fill-rule="evenodd">
	<path d="m382.08 3.858c2.297-0.697 1.192 2.007 1.439 3.36-1.56-0.037-1.02-2.176-1.44-3.36z"/>
	<path d="m385.92 4.338c0.898 0.854 1.558 3.256-0.48 3.36 0-1.275-0.18-2.741 0.48-3.36z"/>
	<path d="m389.28 6.258c0.941-0.232 1.546 2.201 0.48 2.4-1.73 0.459-0.85-2.072-0.48-2.4z"/>
	<path d="m400.32 7.218c1.256 0.505 1.57 1.95 1.44 3.84-0.861-0.061-1.013 0.588-1.92 0.48 1.1-1.56-0.63-2.971 0.48-4.32z"/>
	<path d="m397.44 8.178c1.227 0.054 0.953 1.607 0.96 2.88-2.29-0.064-0.64-1.089-0.96-2.88z"/>
	<path d="m382.56 8.658c1.768-0.442 0.873 2.532 0.48 2.88-1.71-0.408-0.06-1.183-0.48-2.88z"/>
	<path d="m385.44 9.138h1.44c0.063 1.183 0.072 2.312-0.48 2.88-0.84-0.442-1.06-1.501-0.96-2.88z"/>
	<path d="m404.16 9.138c2.071 3.369 0.441 10.439 0.961 15.36-2-4.156-0.73-11.922-0.96-15.36z"/>
	<path d="m360 9.618c1.946-0.186 0.528 2.991 0.96 4.32-1.95 0.186-0.53-2.992-0.96-4.32z"/>
	<path d="m356.64 10.578c1.38 0.587 1.969 3.505 0 3.84v-3.84z"/>
	<path d="m362.4 10.578c1.456-0.016 1.196 1.684 1.44 2.88-1.72 0.279-1.46-1.421-1.44-2.88z"/>
	<path d="m353.28 14.898c2.27 0.083 0.738 2.928 0.959 4.32-1.59-0.169-0.75-2.767-0.96-4.32z"/>
	<path d="m400.32 15.858c2.814 0.223 1.547 3.867 0 4.8v-4.8z"/>
	<path d="m360 16.338c1.639-0.175 2.024 2.776 0 2.4-0.9-0.916 0.28-0.869 0-2.4z"/>
	<path d="m356.64 16.818c2.049 0.191 0.458 4.022 0.96 5.76-2.05-0.191-0.46-4.023-0.96-5.76z"/>
	<path d="m350.4 19.218c1.768-0.442 0.873 2.532 0.48 2.88-1.58-0.278-0.69-1.813-0.48-2.88z"/>
	<path d="m353.28 20.658c1.467 0.342 1.95 3.995 0 3.84v-3.84z"/>
	<path d="m399.36 26.898c1.771 0.629 2.281 2.519 2.88 4.32-1.66-0.746-2.24-2.561-2.88-4.32z"/>
	<path d="m396.96 27.377c1.38 1.021 2.7 2.1 2.88 4.32-1.26-1.136-2.66-2.141-2.88-4.32z"/>
	<path d="m357.12 35.058c0.773 4.646-1.214 7.41 0.479 12-3.25-2.227-1.15-8.279-0.48-12z" fill="#fff"/>
	<path d="m342.24 40.338c1.956 0.778 1.33 3.047 0.96 4.32-1.59-0.169-0.75-2.767-0.96-4.32z"/>
	<path d="m345.6 40.818h0.96v3.84h-0.96v-3.84z"/>
	<path d="m358.56 42.738c1.823 0.417 0.413 4.067 1.44 5.28-1.51-0.73-0.98-3.499-1.44-5.28z" fill="#fff"/>
	<path d="m431.04 43.218c0.427 0.212 0.858 0.421 0.96 0.96 0.935 8.968 0.479 20.332 0.479 31.2 0 10.526 1.484 21.986-1.92 29.76 0.18-22.163-0.671-37.33 0.48-60.479v-1.443z" fill="#fff"/>
	<path d="m338.4 44.658c2.5 0.673 0.951 4.927 0.96 6.72-1.89-0.675-0.57-4.552-0.96-6.72z"/>
	<path d="m342.72 46.098c1.05 0.071 1.03 1.209 0.96 2.4-1.93 0.069-1.27-1.231-0.96-2.4z"/>
	<path d="m335.52 47.058c1.913 0.93 0.6 3.992 0.48 5.28-1.88-1.098-0.21-3.089-0.48-5.28z"/>
	<path d="m433.44 50.417c2.651 6.951 2.253 23.266 2.4 34.08 0.059 4.296-0.447 8.613-2.4 11.04 0.63-14.521 0.24-29.308 0-45.12z" fill="#fff"/>
	<path d="m342.24 50.897c1.427-0.571 2.062 2.023 0.96 2.4-1.61 0.494-0.75-1.492-0.96-2.4z"/>
	<path d="m331.68 53.778c1.845-0.119 0.917 4.123 0.48 4.8-1.1-0.666-0.18-3.341-0.48-4.8z"/>
	<path d="m146.88 54.738c0.775-0.135 0.826 0.454 1.44 0.48-1.007 7.785 0.464 13.692 0 22.56-2.81-5.354-0.85-15.467-1.44-23.04z" fill="#fff"/>
	<path d="m335.52 55.698c1.795-0.391 0.889 2.959 0.48 3.36-0.98-0.916-0.96-2.084-0.48-3.36z"/>
	<path d="m142.08 56.178v1.92c-1.85 0.378-1.85-2.299 0-1.92z"/>
	<path d="m149.28 56.178c1.542 8.181 1.626 14.737 0.96 23.04-1.53-5.787-1.16-18.213-0.96-23.04z" fill="#fff"/>
	<path d="m244.8 57.138c-0.207 1.073-2.365 0.194-3.359 0.48 0.01-1.395 2.71-1.135 3.36-0.48z"/>
	<path d="m124.8 58.098c1.808 0.854 0.197 2.142 0.96 3.84-0.838-0.441-1.06-1.5-0.96-2.88-0.96 0.766-1.417 3.624-0.48 4.8 0.448-0.352 0.727-0.873 0.96-1.44 1.109 1.611 0.168 5.272 0.48 7.68-0.691-0.109-0.167-1.433-0.96-1.44-1.4 3.08 0.429 9.389-0.96 12.48-1.362-3.17-0.019-9.256-0.48-14.4-0.417-1.396-0.719-0.54-1.92-0.48 0.78-1.573-0.108-1.835 0-3.84 0.63-0.576 0.755-0.187 1.44 0v-3.84c1.2-0.613 1.5 0.244 1.92-0.48z" fill="#fff"/>
	<path d="m151.68 60.498c1.301 4.855 0.595 7.03 0.96 12.96-2.03-3.488-0.7-9.681-0.96-12.96z" fill="#fff"/>
	<path d="m291.36 60.498c2.389 0.636 7.903 0.219 10.56 0.48-1.68 1.479-8.07 1.16-10.56-0.48z"/>
	<path d="m204 61.458c-12.669 1.894-32.684 0.999-47.04 0.48-0.088-0.408 0.188-0.453 0.48-0.48 14-0.679 28.89 0.349 46.56 0z" fill="#fff"/>
	<path d="m323.04 82.578c-49.101 0.29-97.351 5.142-149.76 4.32-4.073-0.064-16.431-0.815-16.32-4.8 0.07-2.533 5.298 2.497 7.2 2.88 6.546 1.316 14.151-0.206 21.12-0.48 29.732-1.171 67.979-1.477 95.52-2.4 13.502-0.453 27.532-0.097 41.28-0.96 2.638-2.093 3.135-8.913 1.439-12.48-10.372-4.244-22.697-2.803-34.56-2.88-29.459-0.191-78.302-0.149-124.32 0.48 4.38-2.46 9.139-1.705 14.4-1.92 21.366-0.876 47.858 0.01 74.4 0 14.187-0.005 34.033-0.044 54.239 0 5.694 0.013 13.645-0.3 15.84 1.44 3.87 3.068 2.75 13.345-0.48 16.8z" fill="#fff"/>
	<path d="m416.16 65.298c1.914-0.313 1.375 1.825 1.44 3.36-1.16-0.438-1.27-1.929-1.44-3.36z"/>
	<path d="m418.56 66.738c2.225-0.305 1.216 2.624 1.44 4.32-1.75-0.168-0.74-3.097-1.44-4.32z"/>
	<path d="m436.32 66.738c1.548 4.961 0.371 10.917 0.48 16.32-1.17-3.668-0.26-12.141-0.48-16.32z" fill="#fff"/>
	<path d="m145.44 67.218c1.11 1.77 0.167 5.593 0.479 8.16-1.65-1.82-1.34-6.31-0.48-8.16z" fill="#fff"/>
	<path d="m342.24 67.218c0.991 1.755 0.131 3.083 0 4.8-0.94-0.666-0.59-4.074 0-4.8z" fill="#fff"/>
	<path d="m5.76 68.178c1.049 0.07 1.031 1.209 0.96 2.4-0.996 0.284-1.636 0.924-1.92 1.92-1.16-1.038 1.011-2.803 0.96-4.32z" fill="#fff"/>
	<path d="m130.56 68.658c0.878 1.38 0.685 5.789 0 7.2-0.92-2.48 0.14-4.159 0-7.2z" fill="#fff"/>
	<path d="m417.12 70.098c1.294-0.059 1.714 4.943 0 4.8v-4.8z"/>
	<path d="m117.12 72.018c-36.453 1.896-67.858 2.02-106.08 2.4 30.839-2.578 74.972-1.927 106.08-2.4z"/>
	<path d="m3.84 72.978c1.13 0.701-0.023 3.139-0.48 3.84-1.708 0.255-0.093-3.3 0.48-3.84z" fill="#fff"/>
	<path d="m132.48 72.978c0.664 0.234 1.165 4.327-0.48 3.84-0.21-1.651 0.19-2.691 0.48-3.84z" fill="#fff"/>
	<path d="m419.52 73.458c1.09 0.511 0.183 3.018 0.48 4.32-2.62 0.041-0.79-3.1-0.48-4.32z"/>
	<path d="m251.52 74.897c-16.196 1.018-22.669 0.753-38.879 0.96 11.36-2.045 30.09-0.605 38.88-0.96z" fill="#fff"/>
	<path d="m261.6 74.417c-0.616 1.896-8.821 0.946-8.64 0.48 2.02-1.019 5.85-0.232 8.64-0.48z" fill="#fff"/>
	<path d="m263.04 74.897c1.136-1.104 4.308-0.172 6.24-0.48-0.25 1.87-5.2 0.932-6.24 0.48z" fill="#fff"/>
	<path d="m275.04 75.377c-0.854-0.896-1.22 0.39-2.88 0-0.29-1.097 3.32-1.744 2.88 0z" fill="#fff"/>
	<path d="m341.28 74.417c1.893-0.293 0.564 2.636 0.96 3.84-0.76-0.84-0.64-2.557-0.96-3.84z" fill="#fff"/>
	<path d="m211.68 74.897c-14.326 2.262-27.506 0.753-42.72 1.44 17.16-2.488 31.37-0.16 42.72-1.44z" fill="#fff"/>
	<path d="m144.96 75.857c1.988-0.068 0.5 3.34 0.96 4.8-0.73-1.192-0.93-2.913-0.96-4.8z" fill="#fff"/>
	<path d="m184.8 77.778c-0.207 1.073-2.366 0.194-3.36 0.48 0.39-1.012 2.53-1.317 3.36-0.48z" fill="#fff"/>
	<path d="m168.96 78.258c3.045-1.116 8.157-0.164 12-0.48-3.04 1.115-8.16 0.163-12 0.48z" fill="#fff"/>
	<path d="m170.4 80.658c47.808-2.072 87.171-2.219 133.44-2.88 7.016-0.307 7.173 0.735 0.48 0.48-43 1.271-92.82 2.449-133.92 2.4z" fill="#fff"/>
	<path d="m328.32 78.258c1.117 4.003 0.163 10.078 0.48 14.879-3.61-2.599-2.29-10.964-0.48-14.879z" fill="#fff"/>
	<path d="m115.68 80.178c-5.874 0.211-15.254 3.104-20.64 0.96 1.579 0.628 6.521-0.41 8.64-0.48 3.75-0.125 7.18-0.851 12-0.48z" fill="#fff"/>
	<path d="m251.04 81.138c-7 1.568-3.29-1.122 0 0z" fill="#fff"/>
	<path d="m262.08 80.658c-1.131 1.448-3.178 0.378-6.72 0.96 0.68-1.886 4.55-0.568 6.72-0.96z" fill="#fff"/>
	<path d="m265.92 81.138c0.207-1.073 2.365-0.194 3.36-0.48-0.64 1.258-2.13 0.916-3.36 0.48z" fill="#fff"/>
	<path d="m34.08 82.098h-7.2c1.122-0.797 6.375-2.048 7.2 0z" fill="#fff"/>
	<path d="m37.44 81.618c0.207-1.073 2.366-0.194 3.36-0.48-0.67 0.734-2.485 1.363-3.36 0.48z" fill="#fff"/>
	<path d="m47.04 81.618c1.136-1.104 4.308-0.172 6.24-0.48h6.24c-3.205 1.115-8.477 0.163-12.48 0.48z" fill="#fff"/>
	<path d="m245.28 81.138c-23.406 2.061-52.957 1.865-74.4 1.92 25.42-1.913 47.85-1.583 74.4-1.92z" fill="#fff"/>
	<path d="m324.48 83.538c1.387 0.395 1.765 4.288 0.96 5.28-1.93-0.413-2.51-4.172-0.96-5.28z" fill="#fff"/>
	<path d="m117.6 84.498c-14.417 1.43-28.859 2.03-40.8 0.48 16.493 0.022 26.55-0.125 40.8-0.48z" fill="#fff"/>
	<path d="m120.48 84.498c0.493 1.613-1.493 0.747-2.4 0.96-0.49-1.613 1.49-0.748 2.4-0.96z" fill="#fff"/>
	<path d="m421.44 84.498c0.559-0.078 0.854 0.106 0.96 0.48 0.493 7.937-0.717 14.21-0.479 22.079 0.166 5.514 2.773 13.958-1.92 16.801 1.6-14.17-2.31-29.207 1.44-39.362z" fill="#fff"/>
	<path d="m76.32 85.458c-18.189 0.904-28.134 1.217-43.68 0.48 17.153-0.931 30.167-1.113 43.68-0.48z" fill="#fff"/>
	<path d="m27.84 85.458c-1.202 1.998-5.908 0.491-8.64 0.96 1.882-2.358 6.112 0.214 8.64-0.96z" fill="#fff"/>
	<path d="m31.68 85.458c0.493 1.613-1.493 0.747-2.4 0.96-0.493-1.613 1.493-0.748 2.4-0.96z" fill="#fff"/>
	<path d="m350.4 89.297c-1.194-0.726-2.194-1.646-2.399-3.359 1.62 0.302 2.21 1.63 2.4 3.359z"/>
	<path d="m136.32 87.858c1.203 1.196 0.908 3.892 1.44 5.76-2.54 0.143-1.03-3.771-1.44-5.76z" fill="#fff"/>
	<path d="m93.6 88.337c3.103 0.824 0.96 5.978 0.96 7.68 0 20.914 1.496 41.832 0 60-3.018-1.096-1.452-5.629-1.44-8.64 0.073-18.157-1.042-42.085-0.48-57.6v-1.44c0.32-0.003 0.64-0.003 0.96-0.003z" fill="#fff"/>
	<path d="m96 88.337h1.44c2.005 17.569 0.442 43.788 1.44 59.521 0.169 2.673 0.973 6.87-0.96 8.159-2.328-0.042-1.403-3.575-1.44-4.8-0.589-19.406-0.018-42.995 0-61.439-0.563-0.081-0.405-0.878-0.48-1.444z" fill="#fff"/>
	<path d="m99.36 88.337h0.96c2.056 2.319 0.935 6.146 0.96 9.12 0.152 17.673 0.9 36.059 0 58.56-1.761-1.879-1.483-4.449-1.44-8.159 0.219-18.691-0.277-40.502-0.48-58.08v-1.443z" fill="#fff"/>
	<path d="m105.6 88.818c1.77-1.11 5.593-0.168 8.16-0.48-1.77 1.11-5.59 0.166-8.16 0.48z" fill="#fff"/>
	<path d="m59.52 88.818c0.775-0.136 0.826 0.453 1.44 0.479 0.067 3.658-0.593 4.099-0.48 8.16-1.472-1.519-1.864-6.303-0.96-8.639z" fill="#fff"/>
	<path d="m14.88 89.297c-0.563 2.74-3.369 0.494-5.76 0.96 1.186-1.671 2.933-0.483 5.76-0.96z" fill="#fff"/>
	<path d="m27.36 89.297c-1.731 1.399-9.79 1.248-11.52 0.48 2.94-1.06 7.796-0.203 11.52-0.48z" fill="#fff"/>
	<path d="m123.36 89.778c1.729 0.349 0.312 1.496 0.96 3.359-1.82 0.385-0.61-2.269-0.96-3.359z" fill="#fff"/>
	<path d="m145.44 90.738c0.129-0.359 2.469 6.412-0.48 6.24-0.28-2.52 0.85-3.635 0.48-6.24z" fill="#fff"/>
	<path d="m138.72 90.738c1.229 0.53 0.942 2.577 0.96 4.319-2.64-0.698-0.6-1.942-0.96-4.319z" fill="#fff"/>
	<path d="m150.24 91.217c1.163 1.42 0.722 3.167 0 4.8-1.33-1.057 0.07-3.42 0-4.8z" fill="#fff"/>
	<path d="m417.6 91.217c1.537 4.335 0.921 20.271 1.44 29.761 0.221 4.036 0.937 6.512-2.881 7.199 2.33-9.331-2.107-23.771-0.479-33.12 0.26-1.481 1.82-2.518 1.92-3.843z" fill="#fff"/>
	<path d="m143.04 91.698c1.673 0.247 0.704 3.136 0.96 4.8-2.73-0.068-0.24-2.55-0.96-4.8z" fill="#fff"/>
	<path d="m147.84 91.698c1.112 1.471 1 2.89 0.48 4.319-0.96-1.428-0.68-2.67-0.48-4.319z" fill="#fff"/>
	<path d="m141.12 92.177c1.375 0.065-0.415 3.295 0.96 3.36-1.6 1.71-1.75-2.377-0.96-3.36z" fill="#fff"/>
	<path d="m414.24 95.057c0.559-0.077 0.854 0.106 0.961 0.48 0.181 4.656-0.883 9.756-0.961 15.84-0.086 6.753 3.345 15.395-0.96 20.64-0.799-12.855 0.21-21.352-0.96-35.039 1-0.287 1.64-0.927 1.92-1.924z" fill="#fff"/>
	<path d="m410.4 98.417c0.559-0.078 0.854 0.106 0.96 0.48 0.675 5.358-0.534 10.915-0.479 16.319 0.074 7.446 3.24 15.397-1.44 19.2-0.747-13.439 0.533-25.353-0.479-35.04 0.82 0.019 1.24-0.359 1.44-0.963z" fill="#fff"/>
	<path d="m360 108.98c0.966 1.434 1.003 3.796 1.439 5.76-1.23-1.17-1.27-3.53-1.44-5.76z" fill="#fff"/>
	<path d="m39.36 111.86c1.768-0.442 0.873 2.531 0.48 2.88-1.06-0.06-0.204-2.04-0.48-2.88z"/>
	<path d="m42.24 112.82c1.515-0.618 1.515 3.978 0 3.359v-3.36z"/>
	<path d="m401.76 113.3c1.104 1.292-0.248 4.212-1.92 4.32 0.29-1.79 1.02-3.15 1.92-4.32z"/>
	<path d="m403.68 113.3c1.512 2.014-1.001 4.103-1.44 5.76-1.25-1.76 1.57-3.53 1.44-5.76z"/>
	<path d="m45.6 114.26c1.353 0.144 1.698 5.683 0 5.76v-5.76z"/>
	<path d="m48.96 114.74c1.823 2.087 1.007 9.136 0.48 12-0.667-4.3-1.444-7.89-0.48-12z"/>
	<path d="m51.84 116.18c1.2 2.044 2.146 10.786 0 11.521v-11.52z"/>
	<path d="m54.72 116.66h1.44c-0.386 6.319 1.672 11.048-0.96 15.359-0.251-5.03 0.545-11.11-0.48-15.36z"/>
	<path d="m407.04 117.14c0.558-0.078 0.854 0.106 0.96 0.48-0.829 6.713 1.911 15.577-1.44 19.2-0.72-6.93-1.58-13.45 0.48-19.68z" fill="#fff"/>
	<path d="m58.08 119.06c2.265 3.874 0.988 9.864 1.44 15.841-3.093-2.67-0.67-10.85-1.44-15.84z"/>
	<path d="m357.12 119.54c5.809 3.73 0.763 11.475 3.359 18.72-6.32-2.22-0.35-13.97-3.36-18.72z" fill="#fff"/>
	<path d="m61.92 122.42c2.157 3.603 0.38 11.14 0.96 16.32-2.895-2.59-1.213-12.18-0.96-16.32z"/>
	<path d="m360.96 125.3c5.055 1.327 1.52 8.941 2.88 14.4-5.63-1.08-0.65-9-2.88-14.4z" fill="#fff"/>
	<path d="m64.8 125.78c3.134 1.985 0.642 9.598 1.44 13.92-3.134-1.99-0.642-9.6-1.44-13.92z"/>
	<path d="m364.8 128.18c1.055 0.545 1.595 1.605 2.88 1.92-1.376 2.624 0.431 8.432-0.96 11.04-4.14-1.33-0.75-9.85-1.92-12.96z" fill="#fff"/>
	<path d="m368.64 130.58c0.98 0.459 1.899 0.98 2.88 1.439-0.646 3.779-0.05 6.02 0 10.08-5.08 0.28-2.07-7.53-2.88-11.52z" fill="#fff"/>
	<path d="m372 132.98c0.694-1.123 2.856 0.306 3.84 0.48-0.736 3.007-0.794 7.416 0.479 9.12 1.058-2.191 0.424-6.812 0-9.12 0.558 0.403 1.287 0.633 2.4 0.479-0.098 2.695 0.58 6.644 0 9.601-2.57-0.509-4.554-0.616-6.24-0.96-0.32-3.05 0.63-7.36-0.48-9.6z" fill="#fff"/>
	<path d="m36.48 133.94c1.41 0.515 2.124 4.854 0 4.801v-4.8z"/>
	<path d="m379.68 133.94h2.88c-0.314 3.046 0.633 7.354-0.479 9.601h-0.96c-2.35-1.33 0.08-7.44-1.44-9.6z" fill="#fff"/>
	<path d="m39.36 135.86c1.603 0.248 1.09 4.318 0.48 5.279-0.623-1.23-0.993-4.42-0.48-5.28z"/>
	<path d="m42.72 135.86c1.47 1.673 1.231 7.269 0.48 9.6-0.936-2.21-0.423-8.08-0.48-9.6z"/>
	<path d="m81.6 139.22c1.906 4.248 0.838 11.485 0.48 15.84-1.623-3.56-1.654-10.09-0.48-15.84z"/>
	<path d="m396 24.018c-5.62-8.856-27.325-7.647-33.12 1.92 11.278-19.015 50.305-5.659 42.72 20.64-2.183 0.697-4.071 1.688-6.24 2.4 4.091-11.163-2.78-24.595-14.399-26.4-15.345-2.384-26.607 10.989-21.601 26.88-4.553-6.455-2.174-14.889 1.44-20.16 6.264-9.135 20.979-10.479 30.24-3.36-6.898-10.415-31.773-5.197-34.08 7.2 1.82-12.894 24.68-19.317 35.04-9.12zm6.24 7.2c-0.599-1.801-1.109-3.691-2.88-4.32 0.64 1.759 1.22 3.574 2.88 4.32zm-2.4 0.48c-0.18-2.221-1.5-3.3-2.88-4.32 0.22 2.178 1.62 3.183 2.88 4.32z" fill="#fff"/>
	<path d="m360.96 27.377c1.026 0.232-2.136 4.144-2.4 6.24-1.26-2.237 1.46-4.61 2.4-6.24z" fill="#fff"/>
	<path d="m403.68 49.938c7.261 2.34 10.834 8.367 14.4 14.4 0.005-3.21-2.976-7.58-5.28-10.08 13.496 8.375 9.539 38.154-5.76 43.2-2.497-0.224-4.021-1.419-6.24-1.92 6.345-3.927 14.329-9.831 15.359-19.68 0.819-7.821-2.255-13.935-6.72-18.72 2.958-0.551 4.073 4.881 6.24 6.72-1.52-7.124-7.05-10.234-12-13.92zm13.92 18.72c-0.065-1.535 0.474-3.673-1.44-3.36 0.17 1.431 0.28 2.922 1.44 3.36zm2.4 2.4c-0.225-1.696 0.784-4.625-1.44-4.32 0.7 1.223-0.31 4.152 1.44 4.32zm-2.88 3.839c1.714 0.144 1.294-4.859 0-4.8v4.8zm2.88 2.881c-0.298-1.303 0.609-3.81-0.48-4.32-0.31 1.22-2.14 4.361 0.48 4.32z" fill="#fff"/>
	<path d="m132.48 90.738c-2.651 2.657-7.863 4.123-11.04 4.8-2.162-0.455-0.102-4.683-0.96-5.28-6.448-0.113-8.516 0.511-15.36 0.48-0.722 18.828 1.099 49.415-0.48 69.12-27.88-0.128-47.713 0.341-72.48 0.479-0.732-17.731-0.549-52.288-0.48-69.12-7.359 1.441-18.422-0.822-24.96 1.44-1.943-5.097-4.35-9.73-6.72-14.4 2.131-5.869 5.174-10.826 7.2-16.8 29.625-0.86 62.841-0.107 83.52-0.48 6.603-0.119 18.77-0.954 28.32-0.48 2.212 0.292-0.284-4.125 2.4-3.36 3.302-1.228 6.683 0.771 8.64 2.4 4.945-3.349 11.525-8.602 19.68-6.24 3 0.869 4.661 3.398 7.2 5.28 41.897 0.649 77.877-1.133 117.12-0.48 13.435 0.224 27.982 2.001 40.319 0 17.457-2.832 17.538-24.993 26.4-36.96 8.037-10.853 21.175-20.587 39.36-21.12 13.423-0.393 25.497 5.848 35.999 12.96 12.816 14.451 22.103 28.38 24.48 50.88 2.661 25.176-7 52.098-19.68 65.28-4.554 4.733-12.911 10.835-20.16 13.44-21.914 7.875-45.012-0.95-56.16-13.92-3.876-4.51-6.573-10.425-9.12-15.84-4.516-9.603-6.783-21.423-20.159-23.04-8.078-0.977-17.883 0.276-26.881 0.479-39.276 0.887-78.118 1.852-120.48 3.36-3.175 0.113-6.966-0.626-10.08 0-4.62 0.929-6.173 4.742-13.44 4.8-4.16 0.032-8.25-3.214-12-7.681zm275.52-80.16c-21.377-16.263-53.436-5.375-65.76 11.52-9.61 13.173-10.055 32.635-24.48 40.8 5.098 0.343 9.754 1.127 10.08 6.24 2.377 0.617-0.457-3.978 1.92-3.36-0.444 6.326 0.416 11.042 0.48 15.84 0.078 5.856-2.372 13.967 1.92 17.28-0.418-10.749-0.931-23.271 0-36.96 3.239 12.016-2.253 35.049 3.359 46.08 0.662-15.59-1.317-34.312 0.96-48.479 0.257 11.762 0.356 19.348 0 30.72-0.196 6.286-0.926 14.945 0 21.12 0.23 1.534 1.532 3.129 2.4 4.32-0.021-20.574-1.38-42.108 0.479-60.48 0.817 2.953-0.439 7.507 0.48 10.08 2.934-7.787 7.1-14.34 14.399-17.76-7.07-34.476 43.168-46.534 53.761-14.4 0.571-3.451-1.521-6.618 0.96-8.16-0.604 6.259-0.113 12.036 0 17.28 0.063 2.934-1.785 5.93 2.399 6.24 0.014-11.834-1.506-20.788 0.48-34.08 0.112 9.185 0.479 16.355 0.479 24.96 0 4.469-1.48 10.663 2.881 12-0.664-9.638-0.926-24.591 0-32.64 0.838 12.718 0.84 22.962 0.959 34.08 1.289 0.631 0.958 2.882 2.881 2.88-1.321-13.022-1.114-22.618 0-33.12 1.922 11.226-1.639 31.576 3.359 39.36 0.192-10.951-1.332-24.51 0-34.56 2.924 28.123-0.214 65.63 1.92 91.2 0.75-1.428 1.777-3.108 1.92-4.8 0.688-8.125-0.479-19.225-0.479-30.24 0-18.927-0.907-37.273 0.479-50.4 2.351 27.969-0.616 52.445 1.44 79.68 0.882-1.657 1.943-4.475 1.92-5.28-0.567-19.518-0.613-46.86-0.96-65.28-0.029-1.533 0.756-3.332 0.48-4.8-0.981-5.231-5.758-10.56-8.641-14.4-3.534-4.708-7.516-8.959-12-11.52-0.046 0.754 0.064 1.665-0.96 1.44-0.4-1.359 0.68-1.246 0.48-2.402zm-47.04 22.56c2.307-12.397 27.182-17.615 34.08-7.2-9.261-7.119-23.977-5.775-30.24 3.36-3.614 5.271-5.993 13.705-1.44 20.16-5.007-15.891 6.256-29.264 21.601-26.88 11.619 1.805 18.49 15.237 14.399 26.4 2.169-0.711 4.058-1.703 6.24-2.4 7.585-26.299-31.441-39.655-42.72-20.64 5.795-9.567 27.5-10.776 33.12-1.92-10.36-10.197-33.22-3.774-35.04 9.12zm34.08-3.36c-11.463-11.117-32.277-3.099-31.681 12.96 0.14 3.749 2.491 5.833 1.921 10.56-19.643 3.111-23.2 31.171-6.24 39.839 2.917 1.491 6.203 0.656 8.16 3.841-6.684 13.181 2.229 26.639 13.439 27.359 15.857 1.021 23.596-16.891 15.84-29.76 10.369-2.414 17.993-10.33 18.24-21.12 0.279-12.2-8.893-17.642-17.76-22.08 3.11-6.454 2.25-17.109-1.92-21.602zm-36.48 3.84c0.265-2.097 3.427-6.008 2.4-6.24-0.94 1.629-3.66 4.002-2.4 6.24zm-0.96 13.44c-1.693-4.59 0.294-7.354-0.479-12-0.67 3.721-2.77 9.773 0.48 12zm2.4 0.96c-1.027-1.213 0.383-4.863-1.44-5.28 0.46 1.781-0.07 4.55 1.44 5.28zm71.04-3.36c-1.151 23.149-0.301 38.316-0.48 60.479 3.404-7.773 1.92-19.233 1.92-29.76 0-10.868 0.455-22.231-0.479-31.2-0.102-0.539-0.533-0.748-0.96-0.96v1.438zm-15.36 19.199c-2.167-1.838-3.282-7.271-6.24-6.72 4.465 4.785 7.539 10.899 6.72 18.72-1.03 9.849-9.015 15.753-15.359 19.68 2.219 0.501 3.743 1.696 6.24 1.92 15.299-5.046 19.256-34.824 5.76-43.2 2.305 2.5 5.285 6.87 5.28 10.08-3.566-6.033-7.14-12.06-14.4-14.4 4.95 3.687 10.48 6.797 12 13.92zm17.76 31.681c1.953-2.427 2.459-6.744 2.4-11.04-0.147-10.814 0.251-27.129-2.4-34.08 0.24 15.811 0.63 30.598 0 45.12zm-295.68-39.36c-0.083 1.358 0.413 3.293-0.96 3.36-0.055-0.585-0.144-1.136-0.96-0.96 0.228 2.177 0.001 3.556-1.92 2.4-0.005 1.275 0.181 2.742-0.48 3.36-0.847-0.419-1.486-1.606-1.92 0 1.359-0.079-0.399 2.959 0.96 2.88 0.666-0.295 0.072-1.848 0.96-1.92 1.021 3.458-0.563 9.523 1.44 12 0.317-4.323-0.636-9.916 0.48-13.44 1.068 4.692 0.142 11.378 1.44 15.84 1.119-2.871-0.699-11.566 1.44-14.88 0.538 7.057-0.604 10.616 0.96 14.88 1.01-6.786-0.73-10.291 0.96-15.84 1.447 2.508-0.632 9.044 1.44 9.6 0.313-2.567-0.63-6.39 0.48-8.16 1.31 2.619-0.689 10.743 1.44 13.92 1.72-3.801-1.419-13.094 1.44-15.84-0.304 1.794-0.756 2.749 0.96 3.36-1.001-4.738 1.854-10.44-1.92-12.48 0.271 1.042 1.146 3.93 0 4.8-2.385-0.415 0.845-3.632-0.96-4.8-1.49 0.907-3.59 1.206-5.28 1.92zm10.56 21.6c0.464-8.868-1.007-14.775 0-22.56-0.614-0.026-0.665-0.615-1.44-0.48 0.59 7.573-1.37 17.686 1.44 23.04zm100.32-16.8c6.028-1.491 16.651 0.7 20.641-1.44-21.162 0.417-38.934-0.647-60 0.48 8.9 1.334 17.393-0.971 25.92 1.44-10.175 0.279-18.774-1.326-30.72 0.96 22.031 0.258 48.075-0.217 66.24 0 19.968 0.238 45.029 4.546 53.76-7.2-8.799 7.521-29.459 3.181-44.64 4.32 1.142 1.388 9.273-0.111 10.08 1.92-14.09-0.197-29.55 0.286-41.28-0.48zm-98.4 18.24c0.666-8.303 0.582-14.859-0.96-23.04-0.2 4.827-0.57 17.253 0.96 23.04zm-27.36-20.64v3.84c-0.685-0.187-0.81-0.576-1.44 0-0.108 2.005 0.78 2.267 0 3.84 1.201-0.06 1.502-0.917 1.92 0.48 0.461 5.144-0.882 11.229 0.48 14.4 1.389-3.091-0.44-9.4 0.96-12.48 0.792 0.007 0.269 1.331 0.96 1.44-0.312-2.408 0.629-6.069-0.48-7.68-0.233 0.567-0.512 1.088-0.96 1.44-0.937-1.176-0.48-4.034 0.48-4.8-0.1 1.379 0.122 2.438 0.96 2.88-0.763-1.698 0.848-2.986-0.96-3.84-0.42 0.724-0.72-0.133-1.92 0.48zm29.76 14.88c-0.365-5.93 0.341-8.104-0.96-12.96 0.26 3.279-1.07 9.472 0.96 12.96zm4.8-12c-0.292 0.027-0.568 0.072-0.48 0.48 14.356 0.519 34.371 1.414 47.04-0.48-17.67 0.349-32.56-0.679-46.56 0zm-37.44 1.439c-17.112 1.711-35.087 1.44-55.68 1.44-22.552 0-34.722 0.576-55.68 0.48-0.172 4.442 0.31 8.171 0 11.52 33.082 0.023 80.251-1.314 111.36-0.96-38.714 3.983-80.517 0.223-111.36 3.361 15.452 0.282 35.88 0.197 57.12 0 20.369-0.189 35.492-1.083 54.72-0.96-0.688-5.798 1.379-13.177-1.44-15.84 0.05 0.585 0.14 1.136 0.96 0.959zm203.52 2.881c-2.195-1.741-10.146-1.428-15.84-1.44-20.206-0.044-40.053-0.005-54.239 0-26.542 0.01-53.034-0.876-74.4 0-5.261 0.216-10.02-0.54-14.4 1.92 46.018-0.629 94.861-0.671 124.32-0.48 11.862 0.077 24.188-1.364 34.56 2.88 1.695 3.567 1.198 10.387-1.439 12.48-13.748 0.863-27.778 0.507-41.28 0.96-27.54 0.923-65.788 1.229-95.52 2.4-6.969 0.274-14.574 1.797-21.12 0.48-1.902-0.383-7.13-5.413-7.2-2.88-0.11 3.985 12.248 4.736 16.32 4.8 52.409 0.821 100.66-4.031 149.76-4.32 3.23-3.455 4.35-13.732 0.48-16.8zm23.52 16.32c-0.082 0.718 0.171 1.771-0.48 1.92-0.377-1.862-1.487-2.992-1.439-5.28 0.66-0.021 1.054 0.226 1.439 0.48-0.187-1.253-0.246-2.634-0.96-3.36-0.055 0.586-0.144 1.137-0.96 0.96-1.247-2.608 0.797-7.185 0-10.56-1.535 4.069-1.39 8.958-0.96 13.92-0.685-0.115-0.81-0.791-1.439-0.96-0.386 1.665 0.715 1.845 0.479 3.36 1.553 0.593 0.367-1.553 1.92-0.96-0.211 2.624 3.239 4.104 1.92 6.24-0.953 0.244-1.098-2.648-1.92-0.96 2.95 5.37 7.225 9.415 12.96 12 1.188-1.373 3.853-1.269 4.8-2.881-7.9-1.859-11.72-7.8-15.36-13.919zm89.76 0.96c-0.109-5.402 1.067-11.359-0.48-16.32 0.22 4.179-0.69 12.652 0.48 16.32zm-290.88-7.681c-0.312-2.567 0.63-6.39-0.479-8.16-0.86 1.851-1.17 6.341 0.48 8.16zm196.32-3.359c0.131-1.717 0.991-3.044 0-4.8-0.59 0.726-0.94 4.134 0 4.8zm-337.44 0.48c0.284-0.996 0.924-1.636 1.92-1.92 0.071-1.19 0.089-2.33-0.96-2.4 0.051 1.517-2.12 3.282-0.96 4.32zm125.76 3.359c0.685-1.411 0.878-5.82 0-7.2 0.14 3.042-0.92 4.721 0 7.2zm-127.2 0.96c0.457-0.701 1.61-3.139 0.48-3.84-0.573 0.541-2.188 4.096-0.48 3.84zm128.64 0c1.645 0.487 1.144-3.605 0.48-3.84-0.29 1.15-0.69 2.19-0.48 3.84zm80.64-0.96c16.21-0.207 22.683 0.058 38.879-0.96-8.79 0.355-27.52-1.085-38.88 0.96zm40.32-0.96c-0.182 0.466 8.023 1.416 8.64-0.48-2.79 0.248-6.62-0.539-8.64 0.48zm16.32-0.48c-1.933 0.308-5.104-0.624-6.24 0.48 1.04 0.452 5.99 1.39 6.24-0.48zm2.88 0.96c1.66 0.39 2.026-0.896 2.88 0 0.44-1.744-3.17-1.097-2.88 0zm70.08 2.881c-0.396-1.205 0.933-4.133-0.96-3.84 0.32 1.282 0.2 2.999 0.96 3.84zm-173.28-1.921c15.214-0.687 28.395 0.822 42.72-1.44-11.35 1.28-25.56-1.048-42.72 1.44zm-23.04 4.321c-0.46-1.46 1.028-4.868-0.96-4.8 0.03 1.886 0.23 3.607 0.96 4.8zm35.52-2.4c0.995-0.286 3.153 0.593 3.36-0.48-0.83-0.837-2.97-0.532-3.36 0.48zm-0.48-0.48c-3.843 0.316-8.955-0.636-12 0.48 3.84-0.317 8.96 0.635 12-0.48zm123.36 0.48c6.692 0.255 6.535-0.787-0.48-0.48-46.269 0.661-85.632 0.808-133.44 2.88 41.1 0.049 90.92-1.129 133.92-2.4zm24.48 14.879c-0.317-4.802 0.637-10.876-0.48-14.879-1.81 3.915-3.13 12.28 0.48 14.879zm-225.12-12.479c-2.119 0.07-7.062 1.108-8.64 0.48 5.386 2.145 14.766-0.749 20.64-0.96-4.82-0.371-8.25 0.355-12 0.48zm147.36 0.48c-3.29-1.122-7 1.568 0 0zm4.32 0.48c3.542-0.582 5.589 0.488 6.72-0.96-2.17 0.392-6.04-0.926-6.72 0.96zm13.92-0.96c-0.995 0.286-3.153-0.593-3.36 0.48 1.23 0.436 2.72 0.778 3.36-0.48zm-242.4 1.44h7.2c-0.825-2.048-6.078-0.797-7.2 0zm13.92-0.96c-0.994 0.286-3.153-0.593-3.36 0.48 0.875 0.883 2.69 0.254 3.36-0.48zm18.72 0h-6.24c-1.932 0.308-5.104-0.624-6.24 0.48 4.003-0.317 9.275 0.635 12.48-0.48zm111.36 1.92c21.444-0.055 50.995 0.141 74.4-1.92-26.55 0.337-48.98 0.007-74.4 1.92zm179.52 16.319c0.156 7.663 0.293 14.678 0 21.12-0.212 4.682-1.327 10.779 2.4 12.96 0.018-10.446-0.933-22.304 0.96-32.16-0.228 5.497 0.918 12.189 0.96 19.2 0.026 4.386-2.873 12.79 1.92 15.36-1.829-5.894 0.395-11.75 0-17.761-0.348-5.307-3.635-10.727-1.439-17.279-7.86-3.181-11.781-10.3-15.36-17.76-0.025 12.682 0.085 22.982 0 35.04 1.21 0.871 1.007 3.153 2.4 3.84-0.569-11.782-0.888-19.01 0-32.64 1.425 6.153 1.278 17.435 0.96 27.36-0.121 3.762-0.58 8.114 2.399 9.6-0.631-12.264-0.623-20.771 0-31.68 0.617 4.861 1.809 10.03 1.92 15.36 0.165 7.838-3.687 16.879 1.92 20.159-0.272-8.044-1.19-22.707 0.48-32.159 0.03 0.61 0.62 0.661 0.48 1.436zm-24.96-10.559c0.805-0.992 0.427-4.886-0.96-5.28-1.55 1.108-0.97 4.867 0.96 5.28zm-248.64-3.84c11.941 1.55 26.382 0.949 40.8-0.48-14.25 0.355-24.307 0.502-40.8 0.48zm41.28 0.48c0.907-0.213 2.893 0.653 2.4-0.96-0.91 0.212-2.89-0.653-2.4 0.96zm301.92 38.402c4.693-2.843 2.086-11.287 1.92-16.801-0.237-7.869 0.973-14.143 0.479-22.079-0.105-0.375-0.401-0.559-0.96-0.48-3.75 10.152 0.16 25.189-1.44 39.359zm-387.36-37.922c15.545 0.736 25.49 0.424 43.68-0.48-13.513-0.633-26.527-0.451-43.68 0.48zm-13.44 0.479c2.732-0.469 7.438 1.038 8.64-0.96-2.528 1.175-6.758-1.397-8.64 0.96zm10.08 0c0.907-0.213 2.893 0.653 2.4-0.96-0.907 0.213-2.893-0.652-2.4 0.96zm108.48 7.201c-0.532-1.868-0.237-4.563-1.44-5.76 0.41 1.989-1.1 5.903 1.44 5.76zm-52.8-4.8c0.909 20.025 1.458 35.603 0 51.359-1.297-14.127-0.653-34.663-0.96-45.6-0.05-1.768 1.268-5.447-1.44-5.76-1.988 17.586 1.5 32.898-0.96 46.56-1.427-14.983-0.741-26.107-0.96-39.84-0.03-1.871 1.253-5.752-1.44-6.72-1.047 14.715 1.412 27.563-0.48 42.239-2.744-12.555 0.381-31.701-1.92-42.239-2.035 2.254-0.997 6.546-0.96 10.08 0.082 7.776-0.211 14.209 0 20.159 0.121 3.401 2.117 7.922-0.96 10.561-1.065-10.308 0.32-22.153-0.48-35.521-0.079-1.322 1.322-5.591-1.92-5.279 0.112 7.584 0.345 16.873 0 24.479-0.172 3.78 1.214 8.359-0.96 10.561 0.405-6.772-1.045-14.396-0.96-21.601 0.038-3.206 2.181-13.444-0.96-13.439-0.4 5.898 0.074 16.458-0.48 23.04-0.312 3.716 1.479 8.228-0.96 10.079-0.095-8.514-0.352-19.901-0.48-28.8-0.02-1.408 1.376-3.991-0.96-4.319-2.414 7.477 1.517 22.288-1.92 28.319 0.901-7.181-1.089-14.514-0.96-20.64 0.059-2.781 2.428-6.224-0.48-7.68-2.785 1.949-0.675 6.299-0.48 10.08 0.27 5.223-0.345 11.15-0.96 15.84-1.629-3.958 0.506-11.7-1.92-15.84-1.001 3.63 0.735 10.363-1.44 13.92 0.194-5.469-1.005-10.988-0.96-16.801 0.015-1.884 2.061-5.908-0.96-7.199-1.697 4.626 1.271 14.73-1.44 20.16-0.526-6.674 0.419-14.819-1.44-20.16-2.772 4.604 1.243 13.666-1.44 17.76-0.374-3.499-0.649-8.768-0.96-12.96-0.099-1.34 1.132-4.252-0.96-4.32-1.892 4.271 0.465 9.664-1.44 13.44-1.611-2.064 1.346-12-1.92-13.92-1.652 2.348 1.011 9.011-1.44 10.56-0.643-3.357 1.472-9.473-1.44-10.56-2.357 2.71 1.163 7.43-1.92 8.16-0.552-2.328 1.16-6.92-0.96-7.681-2.437-0.036 0.443 5.243-1.92 5.28-0.742-1.248 0.791-4.131-0.48-5.76-1.978-0.379-0.902 2.298-2.88 1.92 0.732-2.173-1.842-1.038-2.4-1.92-1.804 14.568-0.152 32.944 0 53.279 0.036 4.847-2.213 10.426 0.96 14.4 0.556-3.445-0.891-7.417 0-9.6 2.549 1.796-1.333 9.239 2.4 9.6 0.92-1.268-1.034-6.298 0.48-8.16 1.988 2.745-1.312 7.784 2.4 8.16 1.383-1.472-0.861-4.557 0.48-6.72 1.966 1.826-0.695 5.15 1.92 6.72 1.625-0.775-0.941-5.741 1.44-5.76 0.574 1.825-1.37 6.17 1.44 5.76 1.269-4.666 0.993-11.517 0.96-16.8-0.012-1.92-1.635-5.039 0.96-5.761-0.158 2.633 0 7.085 0 11.521 0 3.6-1.409 10.758 1.92 11.04 0.918-4.198-0.988-14.088 0.48-20.16 1.931 5.353-0.431 14.327 1.92 20.16 2.436-5.035-0.848-14.8 1.44-19.2 2.368 5.619-1.47 15.386 1.92 19.2 2.424-4.422-1.381-13.822 1.44-17.76 2.105 5.357-0.695 14.378 1.44 17.76 2.351-3.7-1.328-13.836 1.92-16.32-0.37 1.803 0.377 3.345 0.48 5.28 0.211 3.983-1.384 9.694 1.44 11.04 0.412-3.443-0.884-9.729 0.96-13.92 2.596 2.744-1.054 11.783 1.92 13.92 1.831-4.338-0.99-8.373 1.92-12.48 1.073 5.793-1.716 10.492 1.92 12.48 1.972-11.324-2.002-19.122 0.96-29.28 1.052 5.536 0.319 15.997 0.48 23.521 0.026 1.22-0.416 5.97 1.44 5.279 1.117-1.041 0.634-6.059 0.48-9.6-0.24-5.493-1.809-13.345 0.96-16.8 0.351 6.318 0.394 12.207 0.48 17.76 0.045 2.939-0.814 7.117 1.44 8.64 1.305-6.971-1.67-17.488 0.96-24.96 1.4 7.138 0.77 13.425 0.48 19.2-0.096 1.918-0.81 5.385 1.44 6.24 2.075-4.305-0.801-13.265 0.96-20.64 2.275 4.216 1.234 12.846 0.96 19.68 1.866 0.979 4.269 1.003 6.24 0-0.825-4.331-1.14-9.4 0-13.44 2.099 4.646-1.538 11.417 2.4 13.92 1.197-19.163-2.074-47.304 0.48-66.72 0.409 16.207 0.96 34.11 0.96 55.2 0 3.806-1.743 11.168 2.4 11.52-0.053-21.198-0.296-46.353-0.48-67.68-2.294 0.562-3.103 0.312-6.24 0.478zm7.68-0.481v1.44c-0.562 15.515 0.553 39.442 0.48 57.6-0.012 3.011-1.578 7.544 1.44 8.64 1.496-18.168 0-39.086 0-60 0-1.702 2.143-6.855-0.96-7.68-0.32-0.003-0.64-0.003-0.96-0.003zm3.84 1.441c-0.018 18.444-0.589 42.033 0 61.439 0.037 1.225-0.888 4.758 1.44 4.8 1.933-1.289 1.129-5.486 0.96-8.159-0.998-15.732 0.565-41.951-1.44-59.521h-1.44c0.075 0.564-0.083 1.361 0.48 1.439zm2.88 0c0.203 17.578 0.699 39.389 0.48 58.08-0.043 3.71-0.321 6.28 1.44 8.159 0.9-22.501 0.152-40.887 0-58.56-0.025-2.974 1.096-6.801-0.96-9.12h-0.96v1.438zm14.4-1.441c-2.567 0.312-6.39-0.63-8.16 0.48 2.57-0.313 6.39 0.631 8.16-0.48zm-53.28 9.121c-0.113-4.062 0.547-4.502 0.48-8.16-0.614-0.026-0.665-0.615-1.44-0.479-0.904 2.335-0.512 7.119 0.96 8.639zm-51.36-7.201c2.391-0.466 5.197 1.78 5.76-0.96-2.827 0.477-4.574-0.711-5.76 0.96zm6.72-0.479c1.73 0.768 9.789 0.919 11.52-0.48-3.724 0.276-8.58-0.581-11.52 0.48zm108.48 3.359c-0.648-1.863 0.77-3.011-0.96-3.359 0.35 1.09-0.86 3.744 0.96 3.359zm20.64 3.841c2.95 0.172 0.61-6.6 0.48-6.24 0.37 2.605-0.76 3.72-0.48 6.24zm-5.28-1.921c-0.018-1.742 0.269-3.789-0.96-4.319 0.36 2.377-1.68 3.621 0.96 4.319zm10.56 0.96c0.722-1.633 1.163-3.38 0-4.8 0.07 1.38-1.33 3.743 0 4.8zm265.44-0.96c-1.628 9.349 2.81 23.789 0.479 33.12 3.817-0.688 3.102-3.163 2.881-7.199-0.52-9.49 0.097-25.426-1.44-29.761-0.1 1.323-1.66 2.36-1.92 3.838zm-271.68 1.441c-0.256-1.664 0.713-4.553-0.96-4.8 0.72 2.25-1.77 4.732 0.96 4.8zm4.32-0.481c0.52-1.43 0.632-2.849-0.48-4.319-0.2 1.649-0.48 2.891 0.48 4.319zm-6.24-0.479c-1.375-0.065 0.415-3.295-0.96-3.36-0.79 0.982-0.64 5.069 0.96 3.36zm270.24 1.44c1.17 13.688 0.161 22.184 0.96 35.039 4.305-5.245 0.874-13.887 0.96-20.64 0.078-6.084 1.142-11.184 0.961-15.84-0.106-0.374-0.402-0.558-0.961-0.48-0.28 0.994-0.92 1.634-1.92 1.918zm-24 30.242c3.021 2.118 8.226-4.152 10.561-4.319-12.42 14.87-40.303 5.301-41.28-14.4 1.532 33.763 55.352 28.205 48.96-7.68-2.404-0.956-4.506-2.215-7.2-2.88 12.322 29.151-34.347 38.84-36.96 10.079 0.184 12.367 10.451 20.794 23.04 19.2 5.112-0.646 8.377-4.425 12-5.76-2.05 2.91-5.04 4.87-9.12 5.76zm20.64-27.843c1.013 9.688-0.268 21.601 0.479 35.04 4.681-3.803 1.515-11.754 1.44-19.2-0.055-5.404 1.154-10.961 0.479-16.319-0.105-0.374-0.401-0.559-0.96-0.48-0.2 0.6-0.62 0.978-1.44 0.956zm-46.08 8.163c-0.314-1.782 0.463-4.94 0-5.28-0.57 1.1-1.98 4.58 0 5.28zm-1.44 7.2c-0.437-1.964-0.474-4.326-1.439-5.76 0.17 2.23 0.21 4.59 1.44 5.76zm9.12 10.56c-3.67-2.41-6.363-5.797-8.64-9.6 1.29 4.47 5.23 8.85 8.64 9.6zm36 11.52c3.352-3.623 0.611-12.487 1.44-19.2-0.106-0.374-0.402-0.559-0.96-0.48-2.06 6.23-1.2 12.75-0.48 19.68zm-46.08 1.44c-2.597-7.245 2.449-14.989-3.359-18.72 3.01 4.75-2.96 16.5 3.36 18.72zm23.04-4.32c0.675 3.006-1.515 8.876 1.44 9.601 3.785-1.583-0.945-6.955 1.92-9.12 1.02 2.021 0.232 5.847 0.479 8.64h2.4c1.706-3.202-1.869-7.397 1.44-9.6 0.499 3.147-0.197 5.218 0 9.12 1.468 0.348 1.411-0.828 2.88-0.48 0.096-3.411-1.574-7.119 0.479-10.08 1.418 3.043 0.735 5.667 0.48 9.601 1.156 0.196 1.043-0.877 2.399-0.48 0.515-3.325-1.105-8.785 0.96-10.56 0.437 2.347 0.462 5.695 0.48 9.6 1.405 0.125 1.475-1.085 2.88-0.96-0.03-3.941-2.189-11.832 1.44-12.479-0.547 3.357-0.359 7.966-0.48 11.52 4.002-0.531 1.411-11.243 1.439-15.359-4.5 6.06-10.96 10.16-20.64 11.04zm-19.68 5.76c-1.36-5.459 2.175-13.073-2.88-14.4 2.23 5.4-2.75 13.32 2.88 14.4zm14.4-11.52c-1.931-0.435-4.017-1.955-4.8-0.96 1.25 0.38 3.9 1.83 4.8 0.96zm-11.52 12.96c1.391-2.608-0.416-8.416 0.96-11.04-1.285-0.314-1.825-1.375-2.88-1.92 1.17 3.11-2.22 11.63 1.92 12.96zm4.8 0.96c-0.05-4.061-0.646-6.301 0-10.08-0.98-0.459-1.899-0.98-2.88-1.439 0.81 3.99-2.2 11.8 2.88 11.52zm0.96 0.48c1.687 0.344 3.67 0.451 6.24 0.96 0.58-2.957-0.098-6.905 0-9.601-1.113 0.153-1.843-0.076-2.4-0.479 0.424 2.308 1.058 6.929 0 9.12-1.273-1.704-1.216-6.113-0.479-9.12-0.983-0.175-3.146-1.604-3.84-0.48 1.11 2.24 0.16 6.55 0.48 9.6zm8.64 0.96h0.96c1.112-2.247 0.165-6.555 0.479-9.601h-2.88c1.52 2.16-0.91 8.27 1.44 9.6z"/>
	<path d="m362.4 96.017c-0.947 1.612-3.612 1.508-4.8 2.881-5.735-2.585-10.01-6.63-12.96-12 0.822-1.688 0.967 1.204 1.92 0.96 1.319-2.137-2.131-3.617-1.92-6.24-1.553-0.593-0.367 1.553-1.92 0.96 0.235-1.515-0.865-1.695-0.479-3.36 0.63 0.169 0.755 0.845 1.439 0.96-0.43-4.962-0.575-9.851 0.96-13.92 0.797 3.375-1.247 7.952 0 10.56 0.816 0.177 0.905-0.374 0.96-0.96 0.714 0.727 0.773 2.107 0.96 3.36-0.386-0.254-0.779-0.501-1.439-0.48-0.048 2.288 1.062 3.417 1.439 5.28 0.651-0.148 0.398-1.202 0.48-1.92 3.64 6.119 7.46 12.06 15.36 13.919zm-14.4-10.079c0.205 1.714 1.205 2.634 2.399 3.359-0.19-1.729-0.78-3.057-2.4-3.359z" fill="#fff"/>
	<path d="m349.92 97.938c-1.671 9.452-0.753 24.115-0.48 32.159-5.606-3.28-1.755-12.321-1.92-20.159-0.111-5.33-1.303-10.499-1.92-15.36-0.623 10.908-0.631 19.416 0 31.68-2.979-1.485-2.521-5.838-2.399-9.6 0.318-9.926 0.465-21.207-0.96-27.36-0.888 13.63-0.569 20.857 0 32.64-1.394-0.687-1.19-2.969-2.4-3.84 0.085-12.058-0.025-22.357 0-35.04 3.579 7.46 7.5 14.58 15.36 17.76-2.195 6.553 1.092 11.973 1.439 17.279 0.395 6.011-1.829 11.867 0 17.761-4.793-2.57-1.894-10.975-1.92-15.36-0.042-7.011-1.188-13.703-0.96-19.2-1.893 9.856-0.942 21.714-0.96 32.16-3.728-2.181-2.612-8.278-2.4-12.96 0.293-6.442 0.156-13.457 0-21.12 0.14-0.778-0.45-0.829-0.48-1.442z" fill="#fff"/>
	<path d="m397.44 121.46c-3.623 1.335-6.888 5.113-12 5.76-12.589 1.594-22.856-6.833-23.04-19.2 2.613 28.761 49.282 19.072 36.96-10.079 2.694 0.665 4.796 1.924 7.2 2.88 6.392 35.885-47.428 41.442-48.96 7.68 0.978 19.701 28.86 29.271 41.28 14.4-2.335 0.167-7.539 6.438-10.561 4.319 4.08-0.89 7.07-2.85 9.12-5.76zm2.4-3.84c1.672-0.108 3.023-3.028 1.92-4.32-0.9 1.17-1.63 2.53-1.92 4.32zm2.4 1.44c0.439-1.657 2.952-3.746 1.44-5.76 0.13 2.23-2.69 4-1.44 5.76z" fill="#fff"/>
	<path d="m362.88 102.26c0.463 0.34-0.314 3.498 0 5.28-1.98-0.7-0.57-4.18 0-5.28z" fill="#fff"/>
	<path d="m361.92 115.7c2.276 3.803 4.97 7.189 8.64 9.6-3.41-0.75-7.35-5.13-8.64-9.6z" fill="#fff"/>
	<path d="m373.44 127.22c0.783-0.995 2.869 0.525 4.8 0.96-0.9 0.87-3.55-0.58-4.8-0.96z" fill="#fff"/>
	<path d="m407.52 12.978c1.024 0.225 0.914-0.686 0.96-1.44 4.484 2.561 8.466 6.812 12 11.52 2.883 3.84 7.659 9.169 8.641 14.4 0.275 1.469-0.51 3.268-0.48 4.8 0.347 18.419 0.393 45.762 0.96 65.28 0.023 0.806-1.038 3.623-1.92 5.28-2.057-27.235 0.91-51.711-1.44-79.68-1.387 13.127-0.479 31.473-0.479 50.4 0 11.016 1.167 22.115 0.479 30.24-0.143 1.691-1.17 3.372-1.92 4.8-2.134-25.57 1.004-63.077-1.92-91.2-1.332 10.05 0.192 23.609 0 34.56-4.998-7.784-1.438-28.134-3.359-39.36-1.114 10.502-1.321 20.098 0 33.12-1.923 0.002-1.592-2.249-2.881-2.88-0.119-11.118-0.121-21.362-0.959-34.08-0.926 8.049-0.664 23.002 0 32.64-4.361-1.337-2.881-7.531-2.881-12 0-8.604-0.367-15.775-0.479-24.96-1.986 13.292-0.467 22.246-0.48 34.08-4.185-0.31-2.336-3.306-2.399-6.24-0.113-5.245-0.604-11.021 0-17.28-2.481 1.542-0.389 4.709-0.96 8.16-10.593-32.134-60.831-20.076-53.761 14.4-7.3 3.42-11.466 9.973-14.399 17.76-0.92-2.573 0.337-7.127-0.48-10.08-1.859 18.372-0.5 39.906-0.479 60.48-0.868-1.191-2.17-2.786-2.4-4.32-0.926-6.175-0.196-14.834 0-21.12 0.356-11.372 0.257-18.958 0-30.72-2.277 14.168-0.298 32.89-0.96 48.479-5.612-11.03-0.12-34.064-3.359-46.08-0.931 13.689-0.418 26.211 0 36.96-4.292-3.313-1.842-11.424-1.92-17.28-0.064-4.798-0.925-9.514-0.48-15.84-2.377-0.618 0.457 3.977-1.92 3.36-0.326-5.113-4.982-5.897-10.08-6.24 14.426-8.165 14.87-27.626 24.48-40.8 12.32-16.897 44.38-27.786 65.76-11.522 0.2 1.156-0.88 1.043-0.48 2.4zm-24-5.76c-0.247-1.353 0.857-4.057-1.439-3.36 0.42 1.184-0.12 3.323 1.44 3.36zm1.92 0.48c2.038-0.104 1.379-2.505 0.48-3.36-0.66 0.619-0.48 2.085-0.48 3.36zm4.32 0.96c1.065-0.199 0.461-2.632-0.48-2.4-0.37 0.328-1.25 2.859 0.48 2.4zm10.08 2.88c0.907 0.108 1.059-0.541 1.92-0.48 0.13-1.89-0.185-3.335-1.44-3.84-1.11 1.349 0.62 2.76-0.48 4.32zm-1.44-0.48c-0.007-1.272 0.267-2.826-0.96-2.88 0.32 1.791-1.33 2.816 0.96 2.88zm-15.36 0.48c0.393-0.348 1.287-3.322-0.48-2.88 0.42 1.697-1.23 2.472 0.48 2.88zm3.36 0.48c0.553-0.567 0.544-1.697 0.48-2.88h-1.44c-0.1 1.379 0.12 2.438 0.96 2.88zm18.72 12.48c-0.52-4.921 1.11-11.991-0.961-15.36 0.23 3.438-1.04 11.204 0.96 15.36zm-44.16-10.56c-0.432-1.329 0.986-4.506-0.96-4.32 0.43 1.328-0.99 4.506 0.96 4.32zm-4.32 0.479c1.969-0.334 1.38-3.253 0-3.84v3.84zm7.2-0.959c-0.244-1.196 0.016-2.896-1.44-2.88-0.02 1.459-0.28 3.159 1.44 2.88zm-9.6 5.76c-0.221-1.392 1.311-4.237-0.959-4.32 0.21 1.553-0.63 4.151 0.96 4.32zm46.08 1.44c1.547-0.933 2.814-4.577 0-4.8v4.8zm-40.32-1.92c2.024 0.376 1.639-2.575 0-2.4 0.28 1.531-0.9 1.484 0 2.4zm-2.4 3.84c-0.502-1.737 1.089-5.569-0.96-5.76 0.5 1.737-1.09 5.569 0.96 5.76zm-6.72-0.48c0.393-0.348 1.287-3.322-0.48-2.88-0.21 1.067-1.1 2.602 0.48 2.88zm2.4 2.4c1.95 0.155 1.467-3.498 0-3.84v3.84zm-10.08 20.16c0.37-1.273 0.996-3.542-0.96-4.32 0.21 1.553-0.63 4.151 0.96 4.32zm2.4 0h0.96v-3.84h-0.96v3.84zm-6.24 6.719c-0.009-1.793 1.54-6.047-0.96-6.72 0.39 2.169-0.93 6.046 0.96 6.72zm4.32-2.879c0.07-1.19 0.09-2.329-0.96-2.4-0.31 1.169-0.97 2.469 0.96 2.4zm-7.68 3.839c0.119-1.288 1.433-4.35-0.48-5.28 0.27 2.192-1.4 4.183 0.48 5.28zm7.2 0.961c1.102-0.377 0.467-2.972-0.96-2.4 0.21 0.907-0.65 2.893 0.96 2.4zm-11.04 5.28c0.437-0.677 1.364-4.918-0.48-4.8 0.3 1.459-0.62 4.134 0.48 4.8zm3.84 0.48c0.408-0.401 1.314-3.751-0.48-3.36-0.48 1.276-0.5 2.444 0.48 3.36z" fill="#fff"/>
	<path d="m143.04 54.258c1.805 1.167-1.425 4.385 0.96 4.8 1.146-0.87 0.271-3.758 0-4.8 3.774 2.04 0.918 7.742 1.92 12.48-1.716-0.611-1.264-1.566-0.96-3.36-2.859 2.746 0.28 12.039-1.44 15.84-2.129-3.177-0.13-11.301-1.44-13.92-1.11 1.77-0.167 5.592-0.48 8.16-2.072-0.556 0.007-7.092-1.44-9.6-1.69 5.55 0.05 9.055-0.96 15.84-1.563-4.264-0.422-7.823-0.96-14.88-2.139 3.313-0.321 12.009-1.44 14.88-1.298-4.462-0.372-11.148-1.44-15.84-1.116 3.524-0.163 9.117-0.48 13.44-2.003-2.477-0.418-8.541-1.44-12-0.888 0.072-0.295 1.625-0.96 1.92-1.359 0.079 0.399-2.959-0.96-2.88 0.434-1.606 1.074-0.419 1.92 0 0.661-0.618 0.475-2.085 0.48-3.36 1.921 1.156 2.148-0.223 1.92-2.4 0.816-0.176 0.905 0.375 0.96 0.96 1.373-0.067 0.877-2.002 0.96-3.36 1.69-0.714 3.79-1.013 5.28-1.92zm-0.96 3.84v-1.92c-1.85-0.379-1.85 2.298 0 1.92z" fill="#fff"/>
	<path d="m289.92 61.458c-0.807-2.031-8.938-0.532-10.08-1.92 15.181-1.139 35.841 3.201 44.64-4.32-8.73 11.746-33.792 7.438-53.76 7.2-18.165-0.217-44.209 0.258-66.24 0 11.946-2.286 20.545-0.681 30.72-0.96-8.527-2.411-17.02-0.106-25.92-1.44 21.066-1.127 38.838-0.063 60-0.48-3.989 2.14-14.612-0.051-20.641 1.44 11.73 0.766 27.19 0.283 41.28 0.48zm12-0.48c-2.656-0.261-8.171 0.156-10.56-0.48 2.49 1.64 8.88 1.959 10.56 0.48z" fill="#fff"/>
	<path d="m119.04 61.938c2.82 2.663 0.752 10.042 1.44 15.84-19.229-0.124-34.352 0.771-54.72 0.96-21.24 0.197-41.667 0.282-57.12 0 30.843-3.138 72.646 0.622 111.36-3.361-31.108-0.354-78.278 0.983-111.36 0.96 0.31-3.349-0.172-7.078 0-11.52 20.958 0.095 33.127-0.48 55.68-0.48 20.593 0 38.567 0.271 55.68-1.44-0.82 0.177-0.91-0.374-0.96-0.959zm-108 12.479c38.222-0.38 69.627-0.503 106.08-2.4-31.108 0.474-75.241-0.177-106.08 2.4z" fill="#fff"/>
	<path d="m404.16 122.9c-0.028 4.116 2.562 14.828-1.439 15.359 0.121-3.554-0.066-8.162 0.48-11.52-3.63 0.647-1.471 8.538-1.44 12.479-1.405-0.125-1.475 1.085-2.88 0.96-0.019-3.904-0.044-7.253-0.48-9.6-2.065 1.774-0.445 7.234-0.96 10.56-1.356-0.396-1.243 0.677-2.399 0.48 0.255-3.934 0.938-6.558-0.48-9.601-2.054 2.961-0.384 6.669-0.479 10.08-1.469-0.348-1.412 0.828-2.88 0.48-0.197-3.902 0.499-5.973 0-9.12-3.31 2.202 0.266 6.397-1.44 9.6h-2.4c-0.247-2.793 0.54-6.619-0.479-8.64-2.865 2.165 1.865 7.537-1.92 9.12-2.955-0.725-0.766-6.595-1.44-9.601 9.68-0.88 16.14-4.98 20.64-11.04z" fill="#fff"/>
	<path d="m91.2 88.337c0.184 21.327 0.427 46.481 0.48 67.68-4.143-0.352-2.4-7.714-2.4-11.52 0-21.09-0.551-38.993-0.96-55.2-2.554 19.416 0.717 47.557-0.48 66.72-3.938-2.503-0.301-9.273-2.4-13.92-1.14 4.04-0.825 9.109 0 13.44-1.971 1.003-4.375 0.979-6.24 0 0.274-6.834 1.315-15.464-0.96-19.68-1.761 7.375 1.115 16.335-0.96 20.64-2.25-0.855-1.536-4.322-1.44-6.24 0.29-5.775 0.92-12.062-0.48-19.2-2.63 7.472 0.345 17.989-0.96 24.96-2.254-1.522-1.395-5.7-1.44-8.64-0.086-5.553-0.129-11.441-0.48-17.76-2.769 3.455-1.2 11.307-0.96 16.8 0.154 3.541 0.637 8.559-0.48 9.6-1.856 0.69-1.414-4.06-1.44-5.279-0.161-7.523 0.572-17.984-0.48-23.521-2.962 10.158 1.012 17.956-0.96 29.28-3.636-1.988-0.847-6.688-1.92-12.48-2.91 4.107-0.089 8.143-1.92 12.48-2.974-2.137 0.676-11.176-1.92-13.92-1.844 4.19-0.548 10.477-0.96 13.92-2.824-1.346-1.229-7.057-1.44-11.04-0.103-1.936-0.85-3.478-0.48-5.28-3.248 2.484 0.431 12.62-1.92 16.32-2.135-3.382 0.665-12.402-1.44-17.76-2.821 3.938 0.984 13.338-1.44 17.76-3.39-3.814 0.448-13.581-1.92-19.2-2.288 4.4 0.996 14.165-1.44 19.2-2.351-5.833 0.011-14.808-1.92-20.16-1.468 6.072 0.438 15.962-0.48 20.16-3.329-0.282-1.92-7.44-1.92-11.04 0-4.436-0.158-8.888 0-11.521-2.595 0.722-0.972 3.841-0.96 5.761 0.033 5.283 0.308 12.134-0.96 16.8-2.81 0.41-0.866-3.935-1.44-5.76-2.381 0.019 0.185 4.984-1.44 5.76-2.615-1.569 0.046-4.894-1.92-6.72-1.341 2.163 0.903 5.248-0.48 6.72-3.712-0.376-0.412-5.415-2.4-8.16-1.514 1.862 0.44 6.893-0.48 8.16-3.733-0.36 0.149-7.804-2.4-9.6-0.891 2.183 0.556 6.154 0 9.6-3.173-3.975-0.924-9.554-0.96-14.4-0.152-20.335-1.804-38.711 0-53.279 0.558 0.882 3.132-0.253 2.4 1.92 1.978 0.378 0.902-2.299 2.88-1.92 1.271 1.629-0.262 4.512 0.48 5.76 2.363-0.037-0.517-5.316 1.92-5.28 2.12 0.761 0.408 5.353 0.96 7.681 3.083-0.73-0.437-5.45 1.92-8.16 2.913 1.087 0.797 7.202 1.44 10.56 2.451-1.549-0.212-8.212 1.44-10.56 3.266 1.92 0.309 11.855 1.92 13.92 1.905-3.776-0.452-9.169 1.44-13.44 2.092 0.068 0.861 2.98 0.96 4.32 0.311 4.192 0.586 9.461 0.96 12.96 2.683-4.094-1.332-13.156 1.44-17.76 1.859 5.341 0.914 13.486 1.44 20.16 2.711-5.43-0.257-15.534 1.44-20.16 3.021 1.291 0.975 5.315 0.96 7.199-0.045 5.812 1.154 11.332 0.96 16.801 2.175-3.557 0.438-10.29 1.44-13.92 2.426 4.14 0.291 11.882 1.92 15.84 0.615-4.689 1.229-10.617 0.96-15.84-0.195-3.781-2.305-8.131 0.48-10.08 2.908 1.456 0.539 4.898 0.48 7.68-0.129 6.126 1.861 13.459 0.96 20.64 3.437-6.031-0.494-20.843 1.92-28.319 2.336 0.328 0.94 2.911 0.96 4.319 0.128 8.898 0.385 20.286 0.48 28.8 2.439-1.852 0.647-6.363 0.96-10.079 0.554-6.582 0.08-17.142 0.48-23.04 3.141-0.005 0.998 10.233 0.96 13.439-0.085 7.204 1.365 14.828 0.96 21.601 2.174-2.201 0.788-6.78 0.96-10.561 0.345-7.606 0.112-16.896 0-24.479 3.242-0.312 1.841 3.957 1.92 5.279 0.8 13.367-0.585 25.213 0.48 35.521 3.077-2.639 1.081-7.159 0.96-10.561-0.211-5.95 0.082-12.383 0-20.159-0.037-3.534-1.075-7.826 0.96-10.08 2.301 10.538-0.824 29.685 1.92 42.239 1.892-14.676-0.567-27.524 0.48-42.239 2.693 0.968 1.41 4.849 1.44 6.72 0.219 13.732-0.467 24.856 0.96 39.84 2.46-13.661-1.027-28.974 0.96-46.56 2.708 0.312 1.39 3.992 1.44 5.76 0.307 10.937-0.337 31.473 0.96 45.6 1.458-15.757 0.909-31.334 0-51.359 3.137-0.169 3.946 0.081 6.24-0.484zm-51.36 26.403c0.393-0.349 1.288-3.322-0.48-2.88 0.276 0.84-0.58 2.82 0.48 2.88zm2.4 1.44c1.515 0.618 1.515-3.978 0-3.359v3.36zm3.36 3.84c1.698-0.077 1.353-5.616 0-5.76v5.76zm3.84 6.72c0.527-2.864 1.343-9.913-0.48-12-0.964 4.11-0.187 7.7 0.48 12zm2.4 0.96c2.146-0.734 1.2-9.477 0-11.521v11.52zm3.36 4.32c2.632-4.312 0.574-9.04 0.96-15.359h-1.44c1.025 4.25 0.229 10.33 0.48 15.36zm4.32 2.88c-0.452-5.977 0.825-11.967-1.44-15.841 0.77 4.99-1.653 13.17 1.44 15.84zm3.36 3.84c-0.58-5.181 1.197-12.718-0.96-16.32-0.253 4.14-1.935 13.73 0.96 16.32zm3.36 0.96c-0.798-4.322 1.694-11.935-1.44-13.92 0.798 4.32-1.694 11.93 1.44 13.92zm-29.76-0.96c2.124 0.053 1.41-4.286 0-4.801v4.8zm3.36 2.4c0.61-0.961 1.123-5.031-0.48-5.279-0.513 0.86-0.143 4.05 0.48 5.28zm3.36 4.32c0.751-2.331 0.99-7.927-0.48-9.6 0.057 1.52-0.456 7.39 0.48 9.6zm38.88 9.6c0.358-4.354 1.426-11.592-0.48-15.84-1.174 5.75-1.143 12.28 0.48 15.84z" fill="#fff"/>
</g>
<metadata><rdf:RDF><cc:Work><dc:format>image/svg+xml</dc:format><dc:type rdf:resource="http://purl.org/dc/dcmitype/StillImage"/><cc:license rdf:resource="http://creativecommons.org/licenses/publicdomain/"/><dc:publisher><cc:Agent rdf:about="http://openclipart.org/"><dc:title>Openclipart</dc:title></cc:Agent></dc:publisher><dc:title>key</dc:title><dc:date>2006-12-03T03:38:30</dc:date><dc:description>an old style key from a U.S. patent drawing</dc:description><dc:source>http://openclipart.org/detail/1734/key-by-johnny_automatic-1734</dc:source><dc:creator><cc:Agent><dc:title>johnny_automatic</dc:title></cc:Agent></dc:creator><dc:subject><rdf:Bag><rdf:li>clip art</rdf:li><rdf:li>clipart</rdf:li><rdf:li>externalsource</rdf:li><rdf:li>image</rdf:li><rdf:li>key</rdf:li><rdf:li>media</rdf:li><rdf:li>open</rdf:li><rdf:li>png</rdf:li><rdf:li>public domain</rdf:li><rdf:li>svg</rdf:li><rdf:li>tool</rdf:li><rdf:li>uspto</rdf:li></rdf:Bag></dc:subject></cc:Work><cc:License rdf:about="http://creativecommons.org/licenses/publicdomain/"><cc:permits rdf:resource="http://creativecommons.org/ns#Reproduction"/><cc:permits rdf:resource="http://creativecommons.org/ns#Distribution"/><cc:permits rdf:resource="http://creativecommons.org/ns#DerivativeWorks"/></cc:License></rdf:RDF></metadata></svg>
